<?xml version="1.0" encoding="utf-8"?>
<!-- Generator: Adobe Illustrator 25.0.0, SVG Export Plug-In . SVG Version: 6.00 Build 0)  -->
<svg version="1.1" id="Layer_1" xmlns="http://www.w3.org/2000/svg" xmlns:xlink="http://www.w3.org/1999/xlink" x="0px" y="0px"
	 viewBox="0 0 300 300" style="enable-background:new 0 0 300 300;" xml:space="preserve">
<style type="text/css">
	.st0{fill:url(#SVGID_1_);}
	.st1{fill:url(#SVGID_2_);}
	.st2{fill:url(#SVGID_3_);}
	.st3{fill:url(#SVGID_4_);stroke:#FFFFFF;stroke-miterlimit:10;}
</style>
<linearGradient id="SVGID_1_" gradientUnits="userSpaceOnUse" x1="142" y1="140.35" x2="265.5" y2="140.35" gradientTransform="matrix(1 0 0 -1 0 300)">
	<stop  offset="0.2134" style="stop-color:#706449"/>
	<stop  offset="0.3966" style="stop-color:#B58F5D"/>
	<stop  offset="0.5263" style="stop-color:#64645E"/>
	<stop  offset="0.562" style="stop-color:#63635E"/>
	<stop  offset="0.6441" style="stop-color:#6D6D69"/>
	<stop  offset="0.8615" style="stop-color:#656560"/>
	<stop  offset="0.9972" style="stop-color:#9E835D"/>
	<stop  offset="1" style="stop-color:#BDBDBD"/>
	<stop  offset="1" style="stop-color:#5F5F5E"/>
	<stop  offset="1" style="stop-color:#60605E"/>
</linearGradient>
<path class="st0" d="M142,199.8c0.3,0.4,0.6,0.8,0.9,1.3c12.5,16.6,32.4,27.3,54.8,27.3c33.9,0,62.1-24.6,67.7-57h-40.7
	c-4.5,10.5-14.9,17.8-27.1,17.8c-16.3,0-29.5-13.2-29.5-29.5c0-6.6,2.2-12.7,5.9-17.7c2.3-3,5.1-5.6,8.3-7.6l0,0
	c4.5-2.7,9.7-4.3,15.3-4.3c12.3,0,22.9,7.6,27.3,18.3h40.6c-5.1-31.2-31.2-55.3-63.3-57.4c-1.5-0.1-3-0.2-4.5-0.2
	c-6.4,0-12.7,0.9-18.6,2.6c-4.4,1.2-8.6,2.9-12.5,4.9c0,0-0.1,0-0.1,0.1c-0.9,0.5-1.9,1-2.9,1.6c-0.4,0.2-0.7,0.4-1,0.6"/>
<linearGradient id="SVGID_2_" gradientUnits="userSpaceOnUse" x1="19.5" y1="138.55" x2="128.2" y2="138.55" gradientTransform="matrix(1 0 0 -1 0 300)">
	<stop  offset="0.1768" style="stop-color:#706449"/>
	<stop  offset="0.2134" style="stop-color:#706449"/>
	<stop  offset="0.3966" style="stop-color:#B58F5D"/>
	<stop  offset="0.5263" style="stop-color:#64645E"/>
	<stop  offset="0.562" style="stop-color:#63635E"/>
	<stop  offset="0.6441" style="stop-color:#6D6D69"/>
	<stop  offset="0.7642" style="stop-color:#60605E"/>
	<stop  offset="0.8408" style="stop-color:#9E835D"/>
	<stop  offset="0.8536" style="stop-color:#BDBDBD"/>
	<stop  offset="0.8749" style="stop-color:#5F5F5E"/>
	<stop  offset="0.8899" style="stop-color:#656560"/>
	<stop  offset="0.9257" style="stop-color:#62625F"/>
</linearGradient>
<path class="st1" d="M128.2,222.1l-48.5,0.4l-0.1-0.1L19.5,100.6l35.1-0.3h4.1c6.3,0.6,11.8,4.2,14.8,9.4l1.4,2.8l29.5,59.7
	L128.2,222.1z"/>
<linearGradient id="SVGID_3_" gradientUnits="userSpaceOnUse" x1="199.7" y1="110.25" x2="199.7" y2="110.25" gradientTransform="matrix(1 0 0 -1 0 300)">
	<stop  offset="0.2134" style="stop-color:#706449"/>
	<stop  offset="0.3966" style="stop-color:#B58F5D"/>
	<stop  offset="0.5263" style="stop-color:#64645E"/>
	<stop  offset="0.562" style="stop-color:#63635E"/>
	<stop  offset="0.6441" style="stop-color:#6D6D69"/>
	<stop  offset="0.8408" style="stop-color:#9E835D"/>
	<stop  offset="0.8536" style="stop-color:#BDBDBD"/>
	<stop  offset="0.8749" style="stop-color:#5F5F5E"/>
	<stop  offset="0.8899" style="stop-color:#656560"/>
	<stop  offset="0.9106" style="stop-color:#60605E"/>
</linearGradient>
<path class="st2" d="M199.7,189.8"/>
<linearGradient id="SVGID_4_" gradientUnits="userSpaceOnUse" x1="53.9" y1="136.35" x2="265.5" y2="136.35" gradientTransform="matrix(1 0 0 -1 0 300)">
	<stop  offset="0.2134" style="stop-color:#706449"/>
	<stop  offset="0.3966" style="stop-color:#B58F5D"/>
	<stop  offset="0.5263" style="stop-color:#64645E"/>
	<stop  offset="0.562" style="stop-color:#63635E"/>
	<stop  offset="0.738" style="stop-color:#9E835D"/>
	<stop  offset="0.9883" style="stop-color:#6D6D69"/>
	<stop  offset="1" style="stop-color:#BDBDBD"/>
	<stop  offset="1" style="stop-color:#5F5F5E"/>
	<stop  offset="1" style="stop-color:#60605E"/>
	<stop  offset="1" style="stop-color:#656560"/>
</linearGradient>
<path class="st3" d="M173.3,142.8l-2.4,3.2l-3.9,6.5l-1.4,2.5c-1.6,2.8-2.1,3.6-3,5.4v-0.1v0.1c-0.4,0.7-0.7,1.4-1.1,2.1
	c-6.6,12.5-13.2,25-19.8,37.5c-0.6,1.2-1.2,2.3-1.9,3.5c-2.1,3.8-4.1,7.5-6.1,11.3l0.1-0.2c-5.8,12.1-15.8,21.8-29.7,21.8
	c-14.9,0-23.3-10-30.3-24.4l-18.9-39.1l-1-1.8c0.3,0.6,0.7,1.2,1,1.8c0,0,0,0,0,0.1c5,8.2,13.7,13.8,23.7,14.7
	c0.9,0.1,1.8,0.1,2.7,0.1c9.8,0,18.5-4.5,24.2-11.6c0,0,2-3.9,0,0l0.1-0.1l0.8-1.6c7.2-13.7,13.2-24.9,13.2-24.9s2-3.9,2.1-3.9
	c0.3-0.6,0.6-1.2,0.9-1.7l0.1-0.1c0.2-0.4,2.2-4.1,2.2-4.1l0.5-0.9c0,0,0-0.1,0.1-0.2c0,0,0-0.1,0.1-0.1c6.4-11.3,16.8-25,33.6-35.7
	c1.1-0.7,2.1-1.3,3.2-1.9l0,0c0.1,0,0.1-0.1,0.2-0.1c0.3-0.2,0.6-0.3,0.8-0.5c1-0.5,1.9-1.1,2.9-1.6c0,0,0.1,0,0.1-0.1l0.1-0.1
	c0,0,0.1,0,0.1-0.1l0,0c4-2,8.1-3.7,12.5-4.9c5.9-1.7,12.2-2.6,18.6-2.6c1.5,0,3,0.1,4.5,0.2c32.1,2.1,58.2,26.2,63.3,57.4h-40.6
	c-0.8-2-1.9-3.9-3.1-5.7l-1.7-2.2c-5.4-6.4-13.5-10.5-22.5-10.5c-5.6,0-10.8,1.6-15.3,4.3l0,0c-3.2,2-6.5,5.1-8.8,8.2"/>
</svg>
