<?xml version="1.0" encoding="utf-8"?>
<!-- Generator: Adobe Illustrator 25.0.0, SVG Export Plug-In . SVG Version: 6.00 Build 0)  -->
<svg version="1.1" id="Layer_1" xmlns="http://www.w3.org/2000/svg" xmlns:xlink="http://www.w3.org/1999/xlink" x="0px" y="0px"
	 viewBox="0 0 953 182" style="enable-background:new 0 0 953 182;" xml:space="preserve">
<style type="text/css">
	.st0{fill:url(#SVGID_1_);}
	.st1{fill:url(#SVGID_2_);}
	.st2{fill:url(#SVGID_3_);}
	.st3{fill:url(#SVGID_4_);stroke:#FFFFFF;stroke-miterlimit:10;}
	.st4{fill:url(#SVGID_5_);}
	.st5{fill:url(#SVGID_6_);}
	.st6{fill:url(#SVGID_7_);}
	.st7{fill:url(#SVGID_8_);stroke:#FFFFFF;stroke-miterlimit:10;}
	.st8{fill:#787160;}
	.st9{font-family:'Garamond-Bold';}
	.st10{font-size:81.029px;}
</style>
<linearGradient id="SVGID_1_" gradientUnits="userSpaceOnUse" x1="125.749" y1="402.972" x2="249.259" y2="402.972" gradientTransform="matrix(1 0 0 -1 0 498)">
	<stop  offset="0.2134" style="stop-color:#706449"/>
	<stop  offset="0.3966" style="stop-color:#B58F5D"/>
	<stop  offset="0.5263" style="stop-color:#64645E"/>
	<stop  offset="0.562" style="stop-color:#63635E"/>
	<stop  offset="0.6441" style="stop-color:#6D6D69"/>
	<stop  offset="0.8615" style="stop-color:#656560"/>
	<stop  offset="0.9972" style="stop-color:#9E835D"/>
	<stop  offset="1" style="stop-color:#BDBDBD"/>
	<stop  offset="1" style="stop-color:#5F5F5E"/>
	<stop  offset="1" style="stop-color:#60605E"/>
</linearGradient>
<path class="st0" d="M125.75,135.18c0.31,0.43,0.62,0.84,0.93,1.26c12.53,16.57,32.41,27.28,54.8,27.28
	c33.94,0,62.14-24.63,67.69-56.98h-40.74c-4.53,10.47-14.95,17.79-27.08,17.79c-16.29,0-29.5-13.21-29.5-29.5
	c0-6.62,2.18-12.73,5.86-17.65c2.27-3.03,5.1-5.61,8.34-7.58h0.01c4.46-2.71,9.69-4.27,15.29-4.27c12.33,0,22.9,7.57,27.3,18.32
	h40.61c-5.1-31.17-31.18-55.28-63.27-57.36c-1.49-0.1-2.99-0.15-4.51-0.15c-6.45,0-12.7,0.89-18.62,2.56
	c-4.36,1.22-8.55,2.87-12.51,4.89c-0.04,0.02-0.08,0.04-0.12,0.06c-0.95,0.5-1.91,1.02-2.88,1.57c-0.35,0.19-0.7,0.39-1.04,0.6"/>
<linearGradient id="SVGID_2_" gradientUnits="userSpaceOnUse" x1="3.269" y1="401.177" x2="111.999" y2="401.177" gradientTransform="matrix(1 0 0 -1 0 498)">
	<stop  offset="0.1768" style="stop-color:#706449"/>
	<stop  offset="0.2134" style="stop-color:#706449"/>
	<stop  offset="0.3966" style="stop-color:#B58F5D"/>
	<stop  offset="0.5263" style="stop-color:#64645E"/>
	<stop  offset="0.562" style="stop-color:#63635E"/>
	<stop  offset="0.6441" style="stop-color:#6D6D69"/>
	<stop  offset="0.7642" style="stop-color:#60605E"/>
	<stop  offset="0.8408" style="stop-color:#9E835D"/>
	<stop  offset="0.8536" style="stop-color:#BDBDBD"/>
	<stop  offset="0.8749" style="stop-color:#5F5F5E"/>
	<stop  offset="0.8899" style="stop-color:#656560"/>
	<stop  offset="0.9257" style="stop-color:#62625F"/>
</linearGradient>
<path class="st1" d="M112,157.52l-48.54,0.41l-0.05-0.12L3.27,36.05l35.1-0.29l4.13-0.04c6.31,0.62,11.75,4.24,14.84,9.42l1.37,2.77
	l29.52,59.75L112,157.52z"/>
<linearGradient id="SVGID_3_" gradientUnits="userSpaceOnUse" x1="183.519" y1="372.852" x2="183.519" y2="372.852" gradientTransform="matrix(1 0 0 -1 0 498)">
	<stop  offset="0.2134" style="stop-color:#706449"/>
	<stop  offset="0.3966" style="stop-color:#B58F5D"/>
	<stop  offset="0.5263" style="stop-color:#64645E"/>
	<stop  offset="0.562" style="stop-color:#63635E"/>
	<stop  offset="0.6441" style="stop-color:#6D6D69"/>
	<stop  offset="0.8408" style="stop-color:#9E835D"/>
	<stop  offset="0.8536" style="stop-color:#BDBDBD"/>
	<stop  offset="0.8749" style="stop-color:#5F5F5E"/>
	<stop  offset="0.8899" style="stop-color:#656560"/>
	<stop  offset="0.9106" style="stop-color:#60605E"/>
</linearGradient>
<path class="st2" d="M183.52,125.15"/>
<linearGradient id="SVGID_4_" gradientUnits="userSpaceOnUse" x1="37.699" y1="398.997" x2="249.259" y2="398.997" gradientTransform="matrix(1 0 0 -1 0 498)">
	<stop  offset="0.2134" style="stop-color:#706449"/>
	<stop  offset="0.3966" style="stop-color:#B58F5D"/>
	<stop  offset="0.5263" style="stop-color:#64645E"/>
	<stop  offset="0.562" style="stop-color:#63635E"/>
	<stop  offset="0.738" style="stop-color:#9E835D"/>
	<stop  offset="0.9883" style="stop-color:#6D6D69"/>
	<stop  offset="1" style="stop-color:#BDBDBD"/>
	<stop  offset="1" style="stop-color:#5F5F5E"/>
	<stop  offset="1" style="stop-color:#60605E"/>
	<stop  offset="1" style="stop-color:#656560"/>
</linearGradient>
<path class="st3" d="M157.05,78.08l-2.37,3.24l-3.93,6.51l-1.36,2.46c-1.64,2.76-2.14,3.6-2.98,5.44l0.04-0.08
	c-0.01,0.02-0.03,0.05-0.04,0.08c-0.37,0.68-0.72,1.37-1.09,2.05c-6.6,12.49-13.21,25-19.81,37.5c-0.62,1.17-1.23,2.33-1.85,3.5
	c-2.05,3.76-4.1,7.53-6.14,11.3l0.11-0.2c-5.83,12.06-15.83,21.8-29.68,21.8c-14.87,0-23.3-10-30.33-24.4L38.73,108.2l-1.03-1.82
	c0.31,0.6,0.65,1.18,1,1.76c0.01,0.02,0.02,0.04,0.03,0.06c5.01,8.16,13.69,13.83,23.74,14.7c0.9,0.09,1.82,0.13,2.74,0.13
	c9.76,0,18.47-4.51,24.15-11.55c0-0.01,2.03-3.85,0.01-0.02c0.04-0.04,0.07-0.08,0.1-0.12l0.83-1.65
	c7.24-13.69,13.15-24.86,13.15-24.87c0.01-0.02,2.04-3.88,2.06-3.9c0.31-0.58,0.61-1.15,0.91-1.73c0.03-0.04,0.05-0.09,0.08-0.14
	c0.21-0.4,2.17-4.11,2.17-4.11c0-0.01,0.48-0.92,0.49-0.94c0,0,0.03-0.06,0.1-0.18c0.02-0.03,0.04-0.07,0.05-0.1
	c6.4-11.31,16.77-25.03,33.55-35.66c1.07-0.68,2.14-1.33,3.21-1.94h0.01c0.06-0.04,0.13-0.08,0.19-0.11
	c0.28-0.17,0.56-0.34,0.84-0.49c0.97-0.55,1.93-1.07,2.88-1.57c0.04-0.02,0.08-0.04,0.12-0.06l0.11-0.05
	c0.04-0.02,0.08-0.04,0.12-0.06h0.01c3.96-2.02,8.15-3.67,12.51-4.89c5.92-1.67,12.17-2.56,18.62-2.56c1.52,0,3.02,0.05,4.51,0.15
	c32.09,2.08,58.17,26.19,63.27,57.36h-40.61c-0.82-2.01-1.85-3.9-3.08-5.66l-1.7-2.2c-5.4-6.4-13.49-10.46-22.52-10.46
	c-5.6,0-10.83,1.56-15.29,4.27h-0.01c-3.24,1.97-6.51,5.14-8.78,8.17"/>
<linearGradient id="SVGID_5_" gradientUnits="userSpaceOnUse" x1="125.749" y1="402.975" x2="249.259" y2="402.975" gradientTransform="matrix(1 0 0 -1 0 498)">
	<stop  offset="0.2134" style="stop-color:#706449"/>
	<stop  offset="0.3966" style="stop-color:#B58F5D"/>
	<stop  offset="0.5263" style="stop-color:#64645E"/>
	<stop  offset="0.562" style="stop-color:#63635E"/>
	<stop  offset="0.6441" style="stop-color:#6D6D69"/>
	<stop  offset="0.8615" style="stop-color:#656560"/>
	<stop  offset="0.9972" style="stop-color:#9E835D"/>
	<stop  offset="1" style="stop-color:#BDBDBD"/>
	<stop  offset="1" style="stop-color:#5F5F5E"/>
	<stop  offset="1" style="stop-color:#60605E"/>
</linearGradient>
<path class="st4" d="M125.75,135.18c0.31,0.43,0.62,0.84,0.93,1.26c12.53,16.57,32.41,27.28,54.8,27.28
	c33.94,0,62.14-24.63,67.69-56.98h-40.74c-4.53,10.47-14.95,17.79-27.08,17.79c-16.29,0-29.5-13.21-29.5-29.5
	c0-6.62,2.18-12.73,5.86-17.65c2.27-3.03,5.1-5.61,8.34-7.58h0.01c4.46-2.71,9.69-4.27,15.29-4.27c12.33,0,22.9,7.57,27.3,18.32
	h40.61c-5.1-31.17-31.18-55.28-63.27-57.36c-1.49-0.1-2.99-0.15-4.51-0.15c-6.45,0-12.7,0.89-18.62,2.56
	c-4.36,1.22-8.55,2.87-12.51,4.89c-0.04,0.02-0.08,0.04-0.12,0.06c-0.95,0.5-1.91,1.02-2.88,1.57c-0.35,0.19-0.7,0.39-1.04,0.6"/>
<linearGradient id="SVGID_6_" gradientUnits="userSpaceOnUse" x1="3.269" y1="401.18" x2="111.999" y2="401.18" gradientTransform="matrix(1 0 0 -1 0 498)">
	<stop  offset="0.1768" style="stop-color:#706449"/>
	<stop  offset="0.2134" style="stop-color:#706449"/>
	<stop  offset="0.3966" style="stop-color:#B58F5D"/>
	<stop  offset="0.5263" style="stop-color:#64645E"/>
	<stop  offset="0.562" style="stop-color:#63635E"/>
	<stop  offset="0.6441" style="stop-color:#6D6D69"/>
	<stop  offset="0.7642" style="stop-color:#60605E"/>
	<stop  offset="0.8408" style="stop-color:#9E835D"/>
	<stop  offset="0.8536" style="stop-color:#BDBDBD"/>
	<stop  offset="0.8749" style="stop-color:#5F5F5E"/>
	<stop  offset="0.8899" style="stop-color:#656560"/>
	<stop  offset="0.9257" style="stop-color:#62625F"/>
</linearGradient>
<path class="st5" d="M112,157.51l-48.54,0.41l-0.05-0.12L3.27,36.04l35.1-0.29l4.13-0.04c6.31,0.62,11.75,4.24,14.84,9.42l1.37,2.77
	l29.52,59.75L112,157.51z"/>
<linearGradient id="SVGID_7_" gradientUnits="userSpaceOnUse" x1="183.519" y1="372.855" x2="183.519" y2="372.855" gradientTransform="matrix(1 0 0 -1 0 498)">
	<stop  offset="0.2134" style="stop-color:#706449"/>
	<stop  offset="0.3966" style="stop-color:#B58F5D"/>
	<stop  offset="0.5263" style="stop-color:#64645E"/>
	<stop  offset="0.562" style="stop-color:#63635E"/>
	<stop  offset="0.6441" style="stop-color:#6D6D69"/>
	<stop  offset="0.8408" style="stop-color:#9E835D"/>
	<stop  offset="0.8536" style="stop-color:#BDBDBD"/>
	<stop  offset="0.8749" style="stop-color:#5F5F5E"/>
	<stop  offset="0.8899" style="stop-color:#656560"/>
	<stop  offset="0.9106" style="stop-color:#60605E"/>
</linearGradient>
<path class="st6" d="M183.52,125.15"/>
<linearGradient id="SVGID_8_" gradientUnits="userSpaceOnUse" x1="37.699" y1="399" x2="249.259" y2="399" gradientTransform="matrix(1 0 0 -1 0 498)">
	<stop  offset="0.2134" style="stop-color:#706449"/>
	<stop  offset="0.3966" style="stop-color:#B58F5D"/>
	<stop  offset="0.5263" style="stop-color:#64645E"/>
	<stop  offset="0.562" style="stop-color:#63635E"/>
	<stop  offset="0.738" style="stop-color:#9E835D"/>
	<stop  offset="0.9883" style="stop-color:#6D6D69"/>
	<stop  offset="1" style="stop-color:#BDBDBD"/>
	<stop  offset="1" style="stop-color:#5F5F5E"/>
	<stop  offset="1" style="stop-color:#60605E"/>
	<stop  offset="1" style="stop-color:#656560"/>
</linearGradient>
<path class="st7" d="M157.05,78.07l-2.37,3.24l-3.93,6.51l-1.36,2.46c-1.64,2.76-2.14,3.6-2.98,5.44l0.04-0.08
	c-0.01,0.02-0.03,0.05-0.04,0.08c-0.37,0.68-0.72,1.37-1.09,2.05c-6.6,12.49-13.21,25-19.81,37.5c-0.62,1.17-1.23,2.33-1.85,3.5
	c-2.05,3.76-4.1,7.53-6.14,11.3l0.11-0.2c-5.83,12.06-15.83,21.8-29.68,21.8c-14.87,0-23.3-10-30.33-24.4L38.73,108.2l-1.03-1.82
	c0.31,0.6,0.65,1.18,1,1.76c0.01,0.02,0.02,0.04,0.03,0.06c5.01,8.16,13.69,13.83,23.74,14.7c0.9,0.09,1.82,0.13,2.74,0.13
	c9.76,0,18.47-4.51,24.15-11.55c0-0.01,2.03-3.85,0.01-0.02c0.04-0.04,0.07-0.08,0.1-0.12l0.83-1.65
	c7.24-13.69,13.15-24.86,13.15-24.87c0.01-0.02,2.04-3.88,2.06-3.9c0.31-0.58,0.61-1.15,0.91-1.73c0.03-0.04,0.05-0.09,0.08-0.14
	c0.21-0.4,2.17-4.11,2.17-4.11c0-0.01,0.48-0.92,0.49-0.94c0,0,0.03-0.06,0.1-0.18c0.02-0.03,0.04-0.07,0.05-0.1
	c6.4-11.31,16.77-25.03,33.55-35.66c1.07-0.68,2.14-1.33,3.21-1.94h0.01c0.06-0.04,0.13-0.08,0.19-0.11
	c0.28-0.17,0.56-0.34,0.84-0.49c0.97-0.55,1.93-1.07,2.88-1.57c0.04-0.02,0.08-0.04,0.12-0.06l0.11-0.05
	c0.04-0.02,0.08-0.04,0.12-0.06h0.01c3.96-2.02,8.15-3.67,12.51-4.89c5.92-1.67,12.17-2.56,18.62-2.56c1.52,0,3.02,0.05,4.51,0.15
	c32.09,2.08,58.17,26.19,63.27,57.36h-40.61c-0.82-2.01-1.85-3.9-3.08-5.66l-1.7-2.2c-5.4-6.4-13.49-10.46-22.52-10.46
	c-5.6,0-10.83,1.56-15.29,4.27h-0.01c-3.24,1.97-6.51,5.14-8.78,8.17"/>
<text transform="matrix(0.776 0 0 1 264.6934 125.1479)" class="st8 st9 st10">VALUE CUMULATION</text>
<text transform="matrix(1 0 0 1 785.6719 -204.2344)" style="font-family:'MyriadPro-Regular'; font-size:12px;">Lorem ipsum</text>
</svg>
